<svg width="26" height="21" viewBox="0 0 26 21" fill="none" xmlns="http://www.w3.org/2000/svg">
<path d="M12.6695 5.82264L4.66732 12.4134V19.5266C4.66732 19.7108 4.74048 19.8875 4.87072 20.0177C5.00095 20.1479 5.17758 20.2211 5.36176 20.2211L10.2255 20.2085C10.4091 20.2076 10.5848 20.134 10.7143 20.0039C10.8438 19.8737 10.9165 19.6976 10.9164 19.5141V15.36C10.9164 15.1758 10.9896 14.9992 11.1198 14.8689C11.2501 14.7387 11.4267 14.6655 11.6109 14.6655H14.3887C14.5728 14.6655 14.7495 14.7387 14.8797 14.8689C15.01 14.9992 15.0831 15.1758 15.0831 15.36V19.511C15.0828 19.6024 15.1006 19.6929 15.1354 19.7774C15.1701 19.8619 15.2212 19.9387 15.2857 20.0035C15.3503 20.0682 15.4269 20.1195 15.5113 20.1546C15.5957 20.1896 15.6862 20.2076 15.7776 20.2076L20.6395 20.2211C20.8237 20.2211 21.0004 20.1479 21.1306 20.0177C21.2608 19.8875 21.334 19.7108 21.334 19.5266V12.4086L13.3335 5.82264C13.2395 5.74683 13.1223 5.70549 13.0015 5.70549C12.8807 5.70549 12.7635 5.74683 12.6695 5.82264ZM25.3097 10.3022L21.6812 7.31136V1.29964C21.6812 1.16151 21.6263 1.02903 21.5287 0.931357C21.431 0.833682 21.2985 0.778809 21.1604 0.778809H18.7298C18.5917 0.778809 18.4592 0.833682 18.3615 0.931357C18.2639 1.02903 18.209 1.16151 18.209 1.29964V4.45112L14.3231 1.25407C13.9502 0.947202 13.4823 0.779422 12.9993 0.779422C12.5164 0.779422 12.0485 0.947202 11.6756 1.25407L0.689019 10.3022C0.636279 10.3458 0.592645 10.3994 0.56061 10.4599C0.528575 10.5203 0.508768 10.5865 0.502319 10.6546C0.49587 10.7227 0.502906 10.7915 0.523025 10.8568C0.543144 10.9222 0.575952 10.983 0.619574 11.0358L1.72634 12.3812C1.76985 12.4341 1.82336 12.4779 1.88381 12.5101C1.94426 12.5423 2.01047 12.5623 2.07864 12.5688C2.14681 12.5754 2.21561 12.5685 2.2811 12.5484C2.34659 12.5284 2.40748 12.4956 2.46029 12.452L12.6695 4.04313C12.7635 3.96732 12.8807 3.92597 13.0015 3.92597C13.1223 3.92597 13.2395 3.96732 13.3335 4.04313L23.5432 12.452C23.5959 12.4956 23.6567 12.5284 23.7221 12.5485C23.7875 12.5687 23.8562 12.5757 23.9243 12.5692C23.9924 12.5628 24.0586 12.543 24.1191 12.5109C24.1795 12.4789 24.2331 12.4353 24.2767 12.3825L25.3835 11.0371C25.427 10.984 25.4597 10.9229 25.4796 10.8572C25.4995 10.7916 25.5062 10.7226 25.4993 10.6543C25.4925 10.586 25.4722 10.5198 25.4396 10.4594C25.4071 10.3989 25.3629 10.3455 25.3097 10.3022Z" fill="white"/>
</svg>
